<?xml version="1.0" standalone="no"?>
<!DOCTYPE svg PUBLIC "-//W3C//DTD SVG 20010904//EN"
 "http://www.w3.org/TR/2001/REC-SVG-20010904/DTD/svg10.dtd">
<svg version="1.0" xmlns="http://www.w3.org/2000/svg"
 width="1041.000000pt" height="372.000000pt" viewBox="0 0 1041.000000 372.000000"
 preserveAspectRatio="xMidYMid meet">

<g transform="translate(0.000000,372.000000) scale(0.100000,-0.100000)"
fill="#000000" stroke="none">
<path d="M874 3562 c-30 -25 -47 -78 -58 -191 -2 -16 -14 -31 -35 -42 -18 -10
-40 -24 -50 -33 -19 -17 -71 -21 -99 -7 -63 32 -118 45 -154 36 -24 -6 -68
-74 -146 -225 -12 -24 -27 -49 -32 -54 -6 -6 -10 -28 -10 -51 0 -37 5 -45 75
-109 l75 -69 0 -77 0 -78 -53 -40 c-78 -60 -97 -86 -97 -130 0 -21 4 -42 9
-47 5 -6 26 -41 46 -80 104 -197 108 -201 172 -198 25 1 50 6 56 12 6 6 20 11
32 11 12 0 25 4 31 9 19 18 62 21 78 6 8 -8 17 -15 21 -15 20 0 79 -52 81 -72
13 -122 33 -177 74 -201 23 -14 56 -17 177 -17 l149 0 26 28 c14 15 31 37 37
50 6 12 18 22 26 22 9 0 15 10 15 25 0 16 -6 25 -15 25 -8 0 -15 7 -15 15 0
17 12 19 26 5 8 -8 15 -6 24 5 11 13 9 19 -10 40 -23 25 -23 25 -4 39 24 18
34 12 34 -20 0 -26 25 -43 40 -28 5 5 5 25 1 46 -7 29 -5 40 8 52 16 15 66 12
77 -5 13 -21 30 -8 26 20 -5 37 11 67 48 86 38 19 74 11 101 -23 23 -30 20
-73 -7 -103 -14 -15 -10 -21 43 -67 l57 -50 -60 -67 c-32 -37 -68 -79 -79 -92
l-21 -25 -58 53 c-46 42 -60 50 -67 38 -13 -21 -13 -23 41 -73 l50 -47 -21
-28 c-17 -24 -19 -32 -9 -50 9 -17 19 -22 43 -19 l32 3 -3 -50 c-3 -38 1 -56
16 -75 15 -20 20 -49 26 -150 7 -124 7 -124 39 -152 38 -32 43 -33 51 -11 4
10 -2 26 -18 42 -21 23 -25 37 -28 114 -1 48 -1 87 2 87 3 0 17 -11 33 -24 24
-21 27 -30 27 -83 0 -49 4 -63 23 -81 30 -28 97 -30 121 -4 15 18 15 19 -10
30 -35 17 -31 65 6 71 32 4 40 17 40 66 0 35 -7 46 -66 106 l-66 67 16 33 c9
17 16 45 16 61 0 33 2 33 35 12 19 -13 25 -25 25 -54 0 -70 11 -97 52 -130 35
-29 42 -31 55 -18 13 14 11 19 -20 44 -31 26 -35 35 -40 94 -3 36 -6 65 -7 66
0 1 -36 33 -79 71 -76 67 -79 72 -65 92 8 11 20 21 26 21 5 0 76 -59 156 -130
130 -117 147 -129 161 -116 13 14 12 19 -13 45 l-27 28 28 7 c42 10 128 53
145 73 9 10 18 36 21 58 5 41 15 89 23 113 3 10 13 6 35 -13 38 -31 54 -28 54
10 0 20 7 30 23 36 12 5 22 15 22 24 0 8 5 15 10 15 14 0 12 54 -2 68 -20 20
1 14 32 -10 24 -18 32 -19 45 -8 13 11 11 17 -22 45 -37 32 -37 32 -158 34
-93 1 -128 -2 -151 -14 -67 -35 -137 -5 -113 48 9 21 9 30 -1 42 -19 23 -41
18 -77 -17 l-32 -31 -50 46 c-54 51 -61 53 -79 35 -10 -10 0 -23 45 -64 l58
-51 -78 -87 c-44 -47 -81 -86 -84 -86 -2 0 -26 19 -54 43 -45 39 -62 67 -40
67 5 0 11 8 14 18 4 9 17 35 30 57 34 58 42 85 23 85 -21 0 -56 48 -56 77 0
35 51 83 89 83 36 0 38 6 11 35 -13 13 -27 57 -40 120 -31 157 -26 145 -66
145 -45 0 -84 37 -84 80 0 41 39 80 80 80 44 0 66 -15 80 -52 l11 -33 25 28
c27 32 31 78 11 117 -8 14 -29 54 -48 90 -18 36 -36 67 -39 70 -3 3 -17 27
-30 53 -15 29 -35 53 -50 58 -25 10 -90 3 -122 -12 -10 -5 -27 -13 -38 -19
-34 -17 -66 -11 -124 22 -46 27 -56 37 -56 60 0 15 -4 30 -10 33 -5 3 -10 24
-10 45 0 47 -17 89 -44 112 -18 15 -44 18 -186 18 -142 0 -168 -3 -186 -18z
m305 -576 c61 -31 94 -75 131 -173 16 -43 0 -193 -21 -193 -5 0 -9 -6 -9 -13
0 -19 -59 -87 -76 -87 -8 0 -14 -4 -14 -10 0 -5 -9 -10 -20 -10 -11 0 -20 -4
-20 -10 0 -6 -33 -10 -78 -10 -64 0 -88 5 -127 25 -49 24 -105 79 -105 103 0
6 -4 12 -10 12 -5 0 -10 11 -10 24 0 14 -4 28 -10 31 -14 8 -13 108 1 142 41
99 71 138 134 171 59 31 169 30 234 -2z m527 -255 c17 -88 14 -103 -11 -78
-11 11 -15 36 -15 93 0 43 2 75 5 72 3 -3 13 -42 21 -87z m-139 23 c15 -21 17
-78 3 -104 -15 -28 -67 -43 -98 -27 -57 27 -66 94 -19 138 17 16 30 20 62 16
21 -3 45 -14 52 -23z m-203 -206 c63 -57 13 -159 -70 -144 -67 13 -85 86 -35
137 35 35 71 37 105 7z m-169 -241 c35 -84 -67 -156 -130 -92 -43 42 -29 106
28 130 42 18 85 2 102 -38z m862 -77 c15 -11 41 -20 60 -20 28 0 34 -3 29 -16
-3 -9 -6 -27 -6 -40 0 -38 -52 -33 -106 12 -44 35 -44 36 -26 59 21 30 18 29
49 5z m-45 -106 c40 -38 55 -45 79 -42 26 4 29 2 29 -22 0 -18 -9 -31 -31 -44
-35 -20 -31 -22 -121 63 -46 43 -46 44 -30 67 9 13 19 24 21 24 2 0 26 -21 53
-46z m-1025 -6 c33 -31 32 -90 -3 -117 -38 -30 -87 -28 -113 5 -62 79 43 181
116 112z m991 -112 c35 -34 42 -46 42 -79 l0 -38 -27 20 c-16 12 -55 45 -87
75 l-60 54 18 27 18 27 26 -23 c15 -13 46 -41 70 -63z m-228 -95 c0 -5 -7 -12
-16 -15 -24 -9 -28 -7 -14 9 14 17 30 20 30 6z m-100 -102 c-7 -11 -14 -18
-17 -15 -3 3 0 12 7 21 18 21 23 19 10 -6z"/>
<path d="M998 2821 c-28 -25 -31 -33 -30 -80 1 -52 8 -65 50 -88 37 -22 79
-13 119 24 8 7 13 34 13 66 0 49 -3 58 -31 81 -41 34 -80 34 -121 -3z"/>
<path d="M2108 3373 c-21 -22 -28 -39 -28 -71 0 -35 5 -45 33 -66 28 -22 45
-26 100 -26 36 0 69 -4 72 -10 3 -5 17 -10 29 -10 45 0 150 -63 218 -132 36
-37 73 -80 80 -95 8 -16 19 -37 25 -48 6 -11 15 -31 20 -45 6 -14 15 -36 21
-50 11 -26 23 -120 15 -120 -2 0 -20 12 -38 26 -37 28 -56 27 -99 -7 -21 -17
-26 -29 -26 -65 0 -44 3 -48 117 -165 92 -94 122 -119 144 -119 22 0 50 24
143 122 105 111 116 126 116 159 0 30 -7 43 -35 68 -20 17 -40 31 -46 31 -15
0 -62 -33 -79 -55 -14 -19 -15 -16 -22 40 -9 83 -18 126 -30 155 -6 14 -15 36
-21 50 -13 34 -49 104 -56 110 -3 3 -13 18 -21 33 -8 16 -56 68 -106 116 -132
127 -259 184 -439 198 -56 4 -62 2 -87 -24z"/>
<path d="M3730 2645 l0 -35 68 0 c37 0 73 -4 80 -8 10 -7 12 -114 10 -503 l-3
-494 -77 -3 -78 -3 0 -34 0 -35 295 0 295 0 0 35 0 34 -82 3 -83 3 -3 243 -2
242 245 0 245 0 0 -233 c0 -168 -3 -236 -12 -245 -7 -7 -42 -12 -85 -12 l-73
0 0 -35 0 -35 295 0 295 0 0 35 0 35 -79 0 c-63 0 -80 3 -85 16 -3 9 -6 230
-6 493 0 358 3 480 12 489 7 7 42 12 85 12 l73 0 0 35 0 35 -295 0 -295 0 0
-35 0 -35 75 0 c63 0 76 -3 85 -19 6 -12 10 -101 10 -220 l0 -201 -245 0 -245
0 0 208 c0 148 3 211 12 220 7 7 42 12 86 12 l73 0 -3 33 -3 32 -292 3 -293 2
0 -35z"/>
<path d="M5100 2646 c0 -32 1 -34 48 -39 36 -4 52 -11 67 -32 11 -14 86 -141
168 -281 l147 -256 0 -203 c0 -112 -3 -210 -6 -219 -5 -13 -22 -16 -85 -16
l-79 0 0 -35 0 -35 295 0 295 0 0 35 0 35 -75 0 c-63 0 -76 3 -85 19 -6 12
-10 102 -10 223 l0 204 161 263 c89 144 172 269 185 278 13 8 41 17 64 20 38
5 40 8 40 39 l0 34 -185 0 -185 0 0 -35 0 -35 58 0 c69 0 87 -9 77 -40 -7 -23
-257 -442 -261 -437 -5 5 -222 384 -238 415 -25 49 -10 62 75 62 l69 0 0 35 0
35 -270 0 -270 0 0 -34z"/>
<path d="M6270 2646 l0 -36 66 0 c115 0 104 51 104 -500 0 -263 -3 -485 -6
-494 -5 -13 -22 -16 -85 -16 l-79 0 0 -35 0 -35 350 0 c392 0 459 8 563 63
107 56 157 142 157 266 0 135 -76 226 -227 271 l-41 13 59 29 c91 45 139 122
139 220 0 142 -73 221 -242 264 -49 12 -141 17 -410 21 l-348 6 0 -37z m665
-80 c57 -44 78 -101 73 -201 -8 -149 -60 -195 -223 -195 l-95 0 0 216 0 216
104 -4 c95 -3 106 -6 141 -32z m30 -498 c73 -39 108 -108 109 -218 0 -55 -5
-87 -21 -121 -43 -95 -113 -129 -270 -129 l-93 0 0 246 0 246 123 -4 c85 -3
131 -9 152 -20z"/>
<path d="M7543 2353 l-103 -4 0 -28 c0 -30 18 -41 68 -41 13 0 34 -11 48 -25
l24 -24 -2 -468 -3 -468 -57 -3 -58 -3 0 -34 0 -35 255 0 255 0 0 35 0 34 -72
3 -73 3 -3 165 -3 164 33 -31 c85 -82 235 -102 356 -48 136 61 202 191 202
398 0 163 -34 261 -117 338 -66 62 -130 83 -237 77 -88 -5 -139 -25 -199 -78
l-35 -30 -6 31 c-3 17 -6 42 -6 55 0 27 18 26 -267 17z m537 -122 c115 -82
113 -518 -3 -594 -64 -42 -153 -28 -217 34 l-40 39 0 220 0 221 44 43 c65 65
155 80 216 37z"/>
<path d="M8440 2320 c0 -29 2 -30 44 -30 24 0 48 -6 54 -12 5 -7 85 -179 177
-383 l168 -369 -29 -54 c-65 -121 -130 -169 -243 -180 -66 -7 -66 -7 -69 -39
l-3 -33 84 0 c166 0 238 44 306 191 22 46 106 255 187 464 80 209 154 388 162
398 9 10 29 17 54 17 36 0 38 2 38 30 l0 30 -150 0 -150 0 0 -30 c0 -28 2 -30
39 -30 49 0 71 -8 71 -25 0 -8 -40 -119 -89 -247 -81 -211 -90 -231 -100 -208
-6 14 -51 122 -100 240 -66 157 -87 218 -79 227 6 7 32 13 59 13 48 0 49 1 49
30 l0 30 -240 0 -240 0 0 -30z"/>
<path d="M1801 2276 c-17 -20 13 -43 34 -26 12 10 13 16 4 26 -6 8 -15 14 -19
14 -4 0 -13 -6 -19 -14z"/>
<path d="M1750 2216 c-13 -17 -6 -36 15 -36 19 0 26 27 11 39 -10 8 -17 7 -26
-3z"/>
<path d="M1630 2086 c-10 -13 -10 -19 0 -32 12 -14 15 -14 29 0 14 15 14 17 0
32 -14 14 -17 14 -29 0z"/>
<path d="M1569 2014 c-10 -13 -10 -17 2 -25 18 -11 33 -6 37 13 4 22 -24 30
-39 12z"/>
<path d="M2890 2013 c-14 -3 -29 -9 -34 -14 -6 -5 -19 -9 -31 -9 -12 0 -25 -4
-30 -9 -18 -16 -63 -21 -77 -9 -49 45 -100 49 -140 11 -48 -46 -32 -110 38
-154 19 -11 40 -26 47 -32 28 -27 67 -41 79 -29 7 7 20 12 30 12 10 0 27 5 38
10 11 6 29 15 41 21 22 11 49 -3 49 -25 0 -7 13 -24 28 -39 48 -46 108 -31
142 36 14 27 12 33 -29 112 -24 47 -51 91 -60 99 -19 17 -57 25 -91 19z"/>
<path d="M496 1688 c-105 -111 -116 -126 -116 -159 0 -30 7 -43 35 -68 20 -17
40 -31 46 -31 15 0 62 33 79 55 14 19 15 16 22 -40 9 -80 17 -125 29 -152 5
-13 14 -35 20 -50 16 -38 51 -107 58 -113 3 -3 13 -18 21 -33 8 -16 56 -68
106 -116 132 -126 257 -183 437 -198 54 -4 61 -3 88 23 23 22 29 36 29 70 0
37 -5 47 -33 68 -28 22 -45 26 -100 26 -36 0 -69 5 -72 10 -3 6 -16 10 -29 10
-26 0 -119 45 -136 65 -7 8 -18 15 -25 15 -15 0 -120 114 -139 151 -7 13 -17
33 -23 44 -6 11 -16 34 -23 50 -7 17 -16 38 -21 47 -5 10 -9 34 -9 54 0 19 -5
45 -11 56 -13 23 -5 20 48 -20 35 -26 55 -24 97 9 21 17 26 29 26 66 0 44 -2
47 -117 164 -92 94 -122 119 -144 119 -22 0 -50 -24 -143 -122z"/>
<path d="M2305 1701 c-95 -25 -152 -81 -192 -191 -15 -42 -17 -126 -3 -135 6
-3 10 -15 10 -26 0 -27 18 -57 65 -107 64 -69 129 -90 230 -76 56 7 83 22 133
68 65 61 77 94 77 207 0 78 -3 101 -17 116 -10 11 -18 24 -18 29 -1 17 -59 73
-98 93 -43 22 -142 34 -187 22z m103 -177 c40 -19 44 -26 47 -82 3 -39 -1 -52
-23 -74 -34 -36 -86 -38 -124 -4 -24 20 -28 31 -28 73 0 51 7 63 54 89 29 17
38 16 74 -2z"/>
<path d="M2850 1498 c-16 -24 -38 -123 -39 -171 -1 -22 14 -45 66 -98 l67 -69
-22 -39 c-12 -21 -22 -49 -22 -62 1 -40 53 -89 94 -89 23 0 74 48 93 88 9 20
25 49 35 64 10 14 18 44 18 65 0 36 -6 45 -75 108 -75 68 -75 68 -75 120 0 72
-26 105 -83 105 -33 0 -46 -5 -57 -22z"/>
<path d="M1701 1129 c-27 -26 -42 -63 -35 -86 8 -24 28 -67 34 -73 3 -3 17
-27 30 -53 15 -29 35 -53 50 -58 26 -11 91 -3 125 14 48 24 56 27 80 27 13 0
39 -9 57 -20 46 -28 86 -26 120 7 48 46 32 110 -38 154 -19 11 -40 26 -47 33
-26 25 -60 33 -94 21 -18 -6 -36 -14 -39 -18 -4 -4 -17 -7 -29 -7 -11 0 -26
-5 -33 -12 -9 -9 -16 -7 -32 7 -11 10 -20 23 -20 30 0 22 -46 55 -76 55 -17 0
-40 -9 -53 -21z"/>
<path d="M2560 1010 c-19 -10 -43 -21 -52 -24 -35 -11 -62 -80 -71 -181 -2
-16 -11 -21 -50 -26 -37 -4 -55 -12 -78 -36 -28 -31 -40 -83 -19 -83 6 0 10
-7 10 -16 0 -33 31 -43 135 -43 143 -1 159 18 179 208 2 16 15 31 41 46 49 27
82 81 66 107 -6 10 -11 23 -11 29 0 40 -88 51 -150 19z"/>
</g>
</svg>
